<?xml version="1.0" encoding="UTF-8"?>
<!DOCTYPE svg PUBLIC "-//W3C//DTD SVG 1.1//EN" "http://www.w3.org/Graphics/SVG/1.1/DTD/svg11.dtd">
<!-- Creator: CorelDRAW X6 -->
<svg xmlns="http://www.w3.org/2000/svg" xml:space="preserve" width="21cm" height="21cm" version="1.1" shape-rendering="geometricPrecision" text-rendering="geometricPrecision" image-rendering="optimizeQuality" fill-rule="evenodd" clip-rule="evenodd"
viewBox="0 0 2100 2100"
 xmlns:xlink="http://www.w3.org/1999/xlink">
 <g id="Ebene_x0020_1">
  <metadata id="CorelCorpID_0Corel-Layer"/>
  <polygon fill="#632F5F" points="0,0 2100,0 2100,2100 0,2100 "/>
  <g id="_879660880">
   <rect fill="black" transform="matrix(3.31193E-015 0.0625256 -0.375154 4.96789E-015 1903.91 195.247)" width="2100" height="2100"/>
   <rect fill="red" transform="matrix(-3.31193E-015 -0.0625256 -0.375154 4.96789E-015 1903.91 457.855)" width="2100" height="2100"/>
   <rect fill="#FFAA00" transform="matrix(3.31193E-015 0.0625256 -0.375154 4.96789E-015 1903.91 457.855)" width="2100" height="2100"/>
  </g>
  <g id="_879664976">
   <rect fill="#006633" x="1116" y="655" width="263" height="394"/>
   <rect fill="white" x="1379" y="655" width="263" height="394"/>
   <rect fill="red" x="1641" y="655" width="263" height="394"/>
  </g>
  <rect fill="white" x="197" y="655" width="788" height="395"/>
  <rect fill="blue" x="197" y="195" width="263" height="394"/>
  <rect fill="white" x="460" y="195" width="263" height="394"/>
  <rect fill="red" x="722" y="195" width="263" height="394"/>
  <rect fill="red" x="197" y="655" width="394" height="131"/>
  <rect fill="red" x="197" y="852" width="394" height="198"/>
  <rect fill="red" x="657" y="655" width="328" height="131"/>
  <rect fill="red" x="657" y="852" width="328" height="198"/>
  <path fill="#FEFEFE" fill-rule="nonzero" d="M263 1837l1312 0 0 -64 -1312 0 0 64zm0 -262l1312 0 0 -65 -1312 0 0 65zm1576 265c10,-10 15,-21 15,-36 0,-13 -5,-24 -15,-34 -9,-9 -20,-14 -34,-14 -14,0 -25,5 -35,14 -10,10 -15,21 -15,34 0,15 5,26 15,36 10,9 21,14 35,14 14,0 25,-5 34,-14zm-1576 -528l1312 0 0 -65 -1312 0 0 65zm1576 266c10,-10 15,-22 15,-35 0,-14 -5,-26 -15,-36 -9,-9 -20,-14 -34,-14 -14,0 -25,5 -35,14 -10,10 -15,22 -15,36 0,13 5,25 15,35 10,8 21,13 35,13 14,0 25,-5 34,-13zm0 -263c10,-10 15,-22 15,-35 0,-14 -5,-26 -15,-35 -9,-9 -20,-14 -34,-14 -14,0 -25,5 -35,14 -10,9 -15,21 -15,35 0,13 5,25 15,35 10,10 21,14 35,14 14,0 25,-4 34,-14zm65 392l0 196 -1707 0 0 -196 1707 0zm0 -263l0 197 -1707 0 0 -197 1707 0zm0 -263l0 197 -1707 0 0 -197 1707 0z"/>
 </g>
</svg>
